HIERARCHY
ROOT Hips
{
	OFFSET 0.000000 0.000000 0.000000
	CHANNELS 6 Xposition Yposition Zposition Yrotation Xrotation Zrotation
	JOINT Chest
	{
		OFFSET 0.000000 10.364816 -1.151646
		CHANNELS 3 Yrotation Xrotation Zrotation
		JOINT Chest2
		{
			OFFSET 0.000000 11.517722 -0.000000
			CHANNELS 3 Yrotation Xrotation Zrotation
			JOINT Chest3
			{
				OFFSET 0.000000 10.515804 -0.000996
				CHANNELS 3 Yrotation Xrotation Zrotation
				JOINT Chest4
				{
					OFFSET 0.000000 10.504063 -0.000998
					CHANNELS 3 Yrotation Xrotation Zrotation
					JOINT Neck
					{
						OFFSET 0.000000 14.700996 0.000000
						CHANNELS 3 Yrotation Xrotation Zrotation
						JOINT Head
						{
							OFFSET 0.000000 9.779655 0.002144
							CHANNELS 3 Yrotation Xrotation Zrotation
							End Site
							{
								OFFSET 0.000000 18.151802 0.000288
							}
						}
					}
					JOINT RightCollar
					{
						OFFSET -3.200323 8.241253 -0.000000
						CHANNELS 3 Yrotation Xrotation Zrotation
						JOINT RightShoulder
						{
							OFFSET -14.963747 0.000000 0.000000
							CHANNELS 3 Yrotation Xrotation Zrotation
							JOINT RightElbow
							{
								OFFSET -31.975845 0.000000 0.000000
								CHANNELS 3 Yrotation Xrotation Zrotation
								JOINT RightWrist
								{
									OFFSET -26.149033 0.000000 0.000000
									CHANNELS 3 Yrotation Xrotation Zrotation
									End Site
									{
										OFFSET -19.551819 0.000000 0.000000
									}
								}
							}
						}
					}
					JOINT LeftCollar
					{
						OFFSET 3.200323 8.241253 -0.000000
						CHANNELS 3 Yrotation Xrotation Zrotation
						JOINT LeftShoulder
						{
							OFFSET 14.963747 0.000000 0.000000
							CHANNELS 3 Yrotation Xrotation Zrotation
							JOINT LeftElbow
							{
								OFFSET 31.975845 0.000000 0.000000
								CHANNELS 3 Yrotation Xrotation Zrotation
								JOINT LeftWrist
								{
									OFFSET 26.149033 0.000000 0.000000
									CHANNELS 3 Yrotation Xrotation Zrotation
									End Site
									{
										OFFSET 19.551819 0.000000 0.000000
									}
								}
							}
						}
					}
				}
			}
		}
	}
	JOINT RightHip
	{
		OFFSET -8.525852 0.003604 -0.000400
		CHANNELS 3 Yrotation Xrotation Zrotation
		JOINT RightKnee
		{
			OFFSET 0.000000 -44.087433 -0.000236
			CHANNELS 3 Yrotation Xrotation Zrotation
			JOINT RightAnkle
			{
				OFFSET 0.000000 -43.085331 -0.000397
				CHANNELS 3 Yrotation Xrotation Zrotation
				JOINT RightToe
				{
					OFFSET 0.000000 -7.938347 18.057957
					CHANNELS 3 Yrotation Xrotation Zrotation
					End Site
					{
						OFFSET 0.000000 -1.698112 7.444336
					}
				}
			}
		}
	}
	JOINT LeftHip
	{
		OFFSET 8.525852 0.001277 -0.000142
		CHANNELS 3 Yrotation Xrotation Zrotation
		JOINT LeftKnee
		{
			OFFSET 0.000000 -44.087433 -0.000236
			CHANNELS 3 Yrotation Xrotation Zrotation
			JOINT LeftAnkle
			{
				OFFSET 0.000000 -43.085323 -0.000397
				CHANNELS 3 Yrotation Xrotation Zrotation
				JOINT LeftToe
				{
					OFFSET 0.000000 -7.938347 18.057957
					CHANNELS 3 Yrotation Xrotation Zrotation
					End Site
					{
						OFFSET 0.000000 -1.698112 7.444336
					}
				}
			}
		}
	}
}
MOTION
Frames: 7
Frame Time: 0.004184
0.400002 96.547272 -0.674225 -4.698418 2.680337 0.315246 0.237430 -1.595722 -0.228736 0.115031 -6.535659 -0.101486 0.114299 -0.715239 -0.089808 0.078761 5.300237 -0.067499 0.469726 14.005812 0.576766 0.658903 -10.019155 0.902646 0.066771 -0.894127 10.201210 -1.044299 -3.594279 79.078619 1.119468 16.325767 1.147956 -3.518573 4.943983 -0.572396 0.099087 -1.757693 -9.111573 2.246013 -3.502372 -78.809550 -5.505062 19.430751 -2.498372 4.804767 -5.449077 -3.435189 -0.677803 -0.691724 -1.280940 -0.114203 6.362220 -0.006876 -3.409316 -9.093042 0.932086 -0.000001 0.000001 0.000000 0.592886 -0.425540 0.369883 -0.001803 5.191630 0.021547 -0.155762 -8.209460 -2.012933 -0.000000 -0.000002 0.000000
0.400527 96.547325 -0.674865 -4.698649 2.680274 0.315302 0.237289 -1.595281 -0.228746 0.114968 -6.535464 -0.101491 0.114239 -0.715044 -0.089819 0.078715 5.300382 -0.067508 0.469666 14.006662 0.575176 0.659414 -10.017575 0.899672 0.065078 -0.894831 10.200761 -1.044699 -3.593996 79.077608 1.119818 16.325248 1.147757 -3.517955 4.943731 -0.573494 0.098710 -1.757569 -9.112331 2.245543 -3.501847 -78.808908 -5.504390 19.428811 -2.497579 4.805500 -5.450237 -3.436222 -0.677428 -0.691338 -1.281237 -0.114350 6.360726 -0.006975 -3.409208 -9.092254 0.932026 0.000002 0.000002 0.000000 0.592615 -0.425299 0.369574 -0.001777 5.190490 0.021377 -0.155667 -8.208877 -2.012525 0.000000 -0.000000 0.000000
0.401076 96.547401 -0.675548 -4.698870 2.680239 0.315362 0.237215 -1.594841 -0.228779 0.114938 -6.535268 -0.101506 0.114209 -0.714848 -0.089838 0.078689 5.300529 -0.067522 0.469618 14.007467 0.573754 0.659885 -10.016078 0.897012 0.063377 -0.895569 10.200280 -1.045177 -3.593730 79.076645 1.120054 16.324777 1.147569 -3.517460 4.943515 -0.574443 0.098314 -1.757605 -9.113056 2.245110 -3.501371 -78.808321 -5.503782 19.427411 -2.496861 4.806091 -5.451067 -3.437163 -0.676963 -0.691065 -1.281606 -0.114595 6.359339 -0.006983 -3.409097 -9.091490 0.932002 0.000001 -0.000004 0.000000 0.592432 -0.425109 0.369262 -0.001812 5.189329 0.021191 -0.155581 -8.208264 -2.012147 -0.000001 0.000003 0.000000
0.401656 96.547478 -0.676288 -4.699098 2.680245 0.315433 0.237241 -1.594398 -0.228846 0.114952 -6.535071 -0.101536 0.114224 -0.714651 -0.089866 0.078697 5.300677 -0.067543 0.469566 14.008227 0.572555 0.660263 -10.014666 0.894772 0.061666 -0.896342 10.199775 -1.045734 -3.593483 79.075750 1.120145 16.324374 1.147394 -3.517127 4.943342 -0.575179 0.097894 -1.757837 -9.113731 2.244742 -3.500991 -78.807795 -5.503253 19.426620 -2.496249 4.806510 -5.451553 -3.437984 -0.676411 -0.690944 -1.282072 -0.114951 6.358106 -0.006877 -3.408960 -9.090755 0.932021 0.000000 0.000003 0.000000 0.592351 -0.424997 0.368939 -0.001903 5.188170 0.020986 -0.155498 -8.207615 -2.011796 0.000000 -0.000003 0.000000
0.402273 96.547562 -0.677059 -4.699301 2.680285 0.315515 0.237293 -1.593967 -0.228923 0.114977 -6.534879 -0.101570 0.114247 -0.714459 -0.089899 0.078715 5.300818 -0.067568 0.469581 14.009001 0.571487 0.660713 -10.013228 0.892755 0.059954 -0.897164 10.199195 -1.046453 -3.593298 79.074917 1.120098 16.324005 1.147230 -3.516949 4.943200 -0.575781 0.097483 -1.758252 -9.114413 2.244412 -3.500637 -78.807351 -5.502731 19.426513 -2.495666 4.806800 -5.451658 -3.438755 -0.675646 -0.690894 -1.282655 -0.115509 6.356907 -0.006620 -3.408849 -9.090014 0.932077 0.000000 0.000003 -0.000000 0.592384 -0.424913 0.368602 -0.002143 5.186937 0.020754 -0.155380 -8.206898 -2.011483 -0.000000 -0.000000 -0.000000
0.402923 96.547668 -0.677856 -4.699436 2.680340 0.315606 0.237281 -1.593563 -0.228985 0.114976 -6.534699 -0.101599 0.114246 -0.714280 -0.089927 0.078712 5.300954 -0.067589 0.469725 14.009830 0.570437 0.661396 -10.011692 0.890722 0.058261 -0.898036 10.198523 -1.047379 -3.593221 79.074138 1.119949 16.323647 1.147076 -3.516883 4.943067 -0.576365 0.097106 -1.758799 -9.115149 2.244073 -3.500263 -78.806982 -5.502147 19.427040 -2.495039 4.807029 -5.451436 -3.439558 -0.674589 -0.690816 -1.283349 -0.116322 6.355621 -0.006208 -3.408828 -9.089224 0.932158 -0.000001 -0.000002 0.000000 0.592518 -0.424798 0.368259 -0.002595 5.185568 0.020496 -0.155205 -8.206111 -2.011207 -0.000001 -0.000001 0.000000
0.403597 96.547791 -0.678673 -4.699516 2.680413 0.315701 0.237227 -1.593174 -0.229036 0.114955 -6.534527 -0.101622 0.114225 -0.714107 -0.089952 0.078694 5.301084 -0.067608 0.469966 14.010676 0.569422 0.662256 -10.010123 0.888710 0.056581 -0.898949 10.197770 -1.048466 -3.593228 79.073373 1.119718 16.323281 1.146929 -3.516907 4.942942 -0.576929 0.096759 -1.759457 -9.115932 2.243715 -3.499866 -78.806688 -5.501528 19.428123 -2.494380 4.807191 -5.450911 -3.440379 -0.673307 -0.690730 -1.284126 -0.117331 6.354274 -0.005673 -3.408880 -9.088413 0.932260 -0.000001 -0.000003 0.000000 0.592740 -0.424669 0.367913 -0.003215 5.184087 0.020216 -0.154995 -8.205249 -2.010963 0.000000 -0.000000 -0.000000
